<svg width="45" height="45" viewBox="0 0 45 45" fill="none" xmlns="http://www.w3.org/2000/svg">
<path fill-rule="evenodd" clip-rule="evenodd" d="M9.88962 18.9866C9.375 20.1055 9.375 21.3784 9.375 23.9242V31.8749C9.375 35.4104 9.375 37.1782 10.4733 38.2765C11.5652 39.3684 13.3186 39.3748 16.8125 39.3749V30C16.8125 28.4122 18.0997 27.125 19.6875 27.125H25.3125C26.9003 27.125 28.1875 28.4122 28.1875 30V39.3749C31.6814 39.3748 33.4348 39.3684 34.5266 38.2765C35.625 37.1782 35.625 35.4104 35.625 31.8749V23.9242C35.625 21.3784 35.625 20.1055 35.1104 18.9866C34.5958 17.8677 33.6293 17.0393 31.6964 15.3825L29.8214 13.7754C26.3277 10.7808 24.5808 9.28345 22.5 9.28345C20.4192 9.28345 18.6723 10.7808 15.1786 13.7754L13.3036 15.3825C11.3707 17.0393 10.4042 17.8677 9.88962 18.9866ZM26.1875 39.3749V30C26.1875 29.5168 25.7957 29.125 25.3125 29.125H19.6875C19.2043 29.125 18.8125 29.5168 18.8125 30V39.3749H26.1875Z" fill="white"/>
</svg>
